<svg xmlns="http://www.w3.org/2000/svg" xmlns:xlink="http://www.w3.org/1999/xlink" width="500" zoomAndPan="magnify" viewBox="0 0 375 374.999991" height="500" preserveAspectRatio="xMidYMid meet" version="1.0"><defs><clipPath id="640ce4d60d"><path d="M 129.367188 98.761719 L 195 98.761719 L 195 308.761719 L 129.367188 308.761719 Z M 129.367188 98.761719 " clip-rule="nonzero"/></clipPath></defs><g clip-path="url(#640ce4d60d)"><path fill="#ff1fa9" d="M 188.644531 122.457031 L 194.566406 122.457031 L 194.566406 98.761719 L 188.644531 98.761719 C 169.015625 98.761719 153.105469 114.675781 153.105469 134.300781 L 153.105469 175.765625 C 153.105469 179.492188 151.347656 183.003906 148.367188 185.242188 L 134.148438 195.902344 C 131.304688 198.035156 129.570312 201.335938 129.421875 204.890625 C 129.273438 208.441406 130.730469 211.875 133.390625 214.234375 L 149.128906 228.222656 C 151.65625 230.46875 153.105469 233.691406 153.105469 237.078125 L 153.105469 276.457031 C 153.105469 296.085938 169.015625 311.996094 188.644531 311.996094 L 194.566406 311.996094 L 194.566406 288.304688 L 188.644531 288.304688 C 182.101562 288.304688 176.796875 283 176.796875 276.457031 L 176.796875 237.078125 C 176.796875 226.925781 172.453125 217.257812 164.867188 210.511719 L 159.964844 206.15625 L 162.582031 204.195312 C 171.53125 197.484375 176.796875 186.949219 176.796875 175.765625 L 176.796875 134.300781 C 176.796875 127.761719 182.101562 122.457031 188.644531 122.457031 Z M 188.644531 122.457031 " fill-opacity="1" fill-rule="evenodd"/></g></svg>